# xmcd
#
# Track frame offsets:
#	150
#	8485
#	24000
#	40100
#	59995
#	79830
#	112250
#	137570
#	155975
#	183975
#	197025
#	221805
#
# Disc length: 3589 seconds
#
# Revision: 2
# Processed by: cddbd v1.5.1PL2 Copyright (c) Steve Scherf et al.
# Submitted via: EasyCDDAExtractor 8.0.2.1
#
DISCID=a80e030c
DTITLE=Iron Maiden - Ullevi Gothenburg 09-07-05 Disc 1
DYEAR=2005
DGENRE=Metal
TTITLE0=The Ides Of March
TTITLE1=Murders In The Rue Morgue
TTITLE2=Another Life
TTITLE3=Prowler
TTITLE4=The Trooper
TTITLE5=Remember Tomorrow
TTITLE6=Where Eagles Dare
TTITLE7=Run To The Hills
TTITLE8=Revelations
TTITLE9=Wrathchild
TTITLE10=Die With Your Boots On
TTITLE11=Phantom Of The Opera
EXTD=
EXTT0=
EXTT1=
EXTT2=
EXTT3=
EXTT4=
EXTT5=
EXTT6=
EXTT7=
EXTT8=
EXTT9=
EXTT10=
EXTT11=
PLAYORDER=
